<svg width="3662" height="2632" viewBox="0 0 3662 2632" fill="none" xmlns="http://www.w3.org/2000/svg">
<path d="M1.48145 2.62062L1.48145 2629.56M61.4814 2.62062L61.4814 2629.56M121.481 2.62062L121.481 2629.56M181.481 2.62062L181.481 2629.56M241.481 2.62062L241.481 2629.56M301.481 2.62062L301.481 2629.56M361.481 2.62062L361.481 2629.56M421.481 2.62062L421.481 2629.56M481.481 2.62062L481.481 2629.56M541.481 2.62062L541.481 2629.56M601.481 2.62062L601.481 2629.56M661.481 2.62062L661.481 2629.56M721.481 2.62062L721.481 2629.56M781.481 2.62062L781.481 2629.56M841.481 2.62062L841.481 2629.56M901.481 2.62062L901.481 2629.56M961.481 2.62062L961.481 2629.56M1021.48 2.62062L1021.48 2629.56M1081.48 2.62062V2629.56M1141.48 2.62062V2629.56M1201.48 2.62062V2629.56M1261.48 2.62062V2629.56M1321.48 2.62062V2629.56M1381.48 2.62062V2629.56M1441.48 2.62062V2629.56M1501.48 2.62062V2629.56M1561.48 2.62062V2629.56M1621.48 2.62062V2629.56M1681.48 2.62062V2629.56M1741.48 2.62062V2629.56M1801.48 2.62062V2629.56M1861.48 2.62062V2629.56M1921.48 2.62062V2629.56M1981.48 2.62062V2629.56M2041.48 2.62062V2629.56M2101.48 2.62062V2629.56M2161.48 2.62062V2629.56M2221.48 2.62062V2629.56M2281.48 2.62062V2629.56M2341.48 2.62062V2629.56M2401.48 2.62062V2629.56M2461.48 2.62062V2629.56M2521.48 2.62062V2629.56M2581.48 2.62062V2629.56M2641.48 2.62062V2629.56M2701.48 2.62062V2629.56M2761.48 2.62062V2629.56M2821.48 2.62062V2629.56M2881.48 2.62062V2629.56M2941.48 2.62062V2629.56M3001.48 2.62062V2629.56M3061.48 2.62062V2629.56M3121.48 2.62062V2629.56M3181.48 2.62062V2629.56M3241.48 2.62062V2629.56M3301.48 2.62062V2629.56M3361.48 2.62062V2629.56M3421.48 2.62062V2629.56M3481.48 2.62062V2629.56M3541.48 2.62062V2629.56M3601.48 2.62062V2629.56M3661.48 2.62062V2629.56M31.4814 2631.09H3631.48M31.4814 2569.93H3631.48M31.4814 2508.77H3631.48M31.4814 2447.6H3631.48M31.4814 2386.44H3631.48M31.4814 2325.28H3631.48M31.4814 2264.11H3631.48M31.4814 2202.95H3631.48M31.4814 2141.79H3631.48M31.4814 2080.63H3631.48M31.4814 2019.46H3631.48M31.4814 1958.3H3631.48M31.4814 1897.14H3631.48M31.4814 1835.98H3631.48M31.4814 1774.81H3631.48M31.4814 1713.65H3631.48M31.4814 1652.49H3631.48M31.4814 1591.32H3631.48M31.4814 1530.16H3631.48M31.4814 1469H3631.48M31.4814 1407.84H3631.48M31.4814 1346.67H3631.48M31.4814 1285.51H3631.48M31.4814 1224.35H3631.48M31.4814 1163.18H3631.48M31.4814 1102.02H3631.48M31.4814 1040.86H3631.48M31.4814 979.696L3631.48 979.696M31.4814 918.533L3631.48 918.533M31.4814 857.371L3631.48 857.371M31.4814 796.208L3631.48 796.208M31.4814 735.045L3631.48 735.045M31.4814 673.882L3631.48 673.882M31.4814 612.719L3631.48 612.719M31.4814 551.557L3631.48 551.557M31.4814 490.394L3631.48 490.394M31.4814 429.231L3631.48 429.231M31.4814 368.068L3631.48 368.068M31.4814 306.906L3631.48 306.906M31.4814 245.743L3631.48 245.743M31.4814 184.58L3631.48 184.58M31.4814 123.417L3631.48 123.417M31.4814 62.2543L3631.48 62.2543M31.4814 1.09155L3631.48 1.09155" stroke="url(#paint0_radial_25_6)"/>
<defs>
<radialGradient id="paint0_radial_25_6" cx="0" cy="0" r="1" gradientUnits="userSpaceOnUse" gradientTransform="translate(1831.48 1316.09) rotate(90.0291) scale(946.956 1651.19)">
<stop stop-color="#AAAAAA"/>
<stop offset="1" stop-opacity="0"/>
</radialGradient>
</defs>
</svg>
